<svg xmlns="http://www.w3.org/2000/svg" width="30" height="30" viewBox="0 0 30 30">
  <path fill="#FFFFFF" fill-rule="evenodd" d="M51.125,23 L24.875,23 C23.8496094,23 23,23.8496094 23,24.875 L23,51.125 C23,52.1503906 23.8496094,53 24.875,53 L39.0400391,53 L39.0400391,41.3398438 L35.2900391,41.3398438 L35.2900391,37.0185547 L39.0400391,37.0185547 L39.0400391,33.2832031 C39.0400391,29.8701172 41.1201172,27.5849609 45.2363281,27.5849609 C47.0527344,27.5849609 48.3125,27.7900391 48.3125,27.7900391 L48.3125,31.6865234 L45.5,31.6865234 C44.2548828,31.6865234 43.625,32.3896484 43.625,33.6201172 L43.625,37.0185547 L48.0048828,37.0185547 L47.375,41.3398438 L43.625,41.3398438 L43.625,53 L51.125,53 C52.1503906,53 53,52.1503906 53,51.125 L53,24.875 C53,23.8496094 52.1503906,23 51.125,23 Z" transform="translate(-23 -23)"/>
</svg>
