<?xml version="1.0" encoding="UTF-8"?>
<svg width="396px" height="129px" viewBox="0 0 396 129" version="1.1" xmlns="http://www.w3.org/2000/svg" xmlns:xlink="http://www.w3.org/1999/xlink">
    <!-- Generator: Sketch 43.2 (39069) - http://www.bohemiancoding.com/sketch -->
    <title>logo</title>
    <desc>Created with Sketch.</desc>
    <defs></defs>
    <g id="Page-1" stroke="none" stroke-width="1" fill="none" fill-rule="evenodd">
        <g id="logo">
            <g id="word" transform="translate(99.000000, 12.000000)" fill-rule="nonzero" fill="#302E64">
                <path d="M51.5933028,49.2594343 C51.5933028,52.3312521 54.0788961,54.8179618 57.1493349,54.8179618 C60.2197736,54.8179618 62.7053669,52.3312521 62.7053669,49.2594343 L62.7053669,32.5107134 C62.7053669,27.24474 65.4102773,24.5386147 69.650407,24.5386147 C73.8905368,24.5386147 76.3761301,27.24474 76.3761301,32.5107134 L76.3761301,49.2594343 C76.3761301,52.3312521 78.8617234,54.8179618 81.9321621,54.8179618 C85.0026009,54.8179618 87.4881942,52.3312521 87.4881942,49.2594343 L87.4881942,29.0000644 C87.4881942,20.0040265 82.5901133,14.445499 74.1829595,14.445499 C68.5538218,14.445499 65.2640659,17.4441783 62.7053669,20.7354117 L62.7053669,20.2965806 C62.7053669,17.2247628 60.2197736,14.7380531 57.1493349,14.7380531 C54.0788961,14.7380531 51.5933028,17.2247628 51.5933028,20.2965806 L51.5933028,49.2594343 Z M136.542109,6.10770781 L136.542109,49.2594343 C136.542109,52.3312521 134.056516,54.8179618 130.986077,54.8179618 C127.915638,54.8179618 125.430045,52.3312521 125.430045,49.2594343 L125.430045,48.7474647 C122.725134,52.4043907 118.996745,55.1105159 113.221395,55.1105159 C104.083185,55.1105159 95.3836082,47.942941 95.3836082,34.851146 L95.3836082,34.7048689 C95.3836082,21.6130739 103.936973,14.445499 113.221395,14.445499 C119.142956,14.445499 122.79824,17.1516243 125.430045,20.2965806 L125.430045,6.10770781 C125.430045,3.03588999 127.915638,0.549180328 130.986077,0.549180328 C134.056516,0.549180328 136.542109,3.03588999 136.542109,6.10770781 Z M116.072517,23.8803681 C110.882013,23.8803681 106.495672,28.1224022 106.495672,34.7048689 L106.495672,34.851146 C106.495672,41.3604742 110.882013,45.6756469 116.072517,45.6756469 C121.263021,45.6756469 125.576256,41.3604742 125.576256,34.851146 L125.576256,34.7048689 C125.576256,28.1955407 121.263021,23.8803681 116.072517,23.8803681 Z M146.338271,5.96143077 C146.338271,9.17952563 149.043181,11.2274042 152.552254,11.2274042 C156.061327,11.2274042 158.766237,9.17952563 158.766237,5.96143077 L158.766237,5.81515373 C158.766237,2.59705887 156.061327,0.622318847 152.552254,0.622318847 C149.043181,0.622318847 146.338271,2.59705887 146.338271,5.81515373 L146.338271,5.96143077 Z M146.996222,49.2594343 C146.996222,52.3312521 149.481815,54.8179618 152.552254,54.8179618 C155.622693,54.8179618 158.108286,52.3312521 158.108286,49.2594343 L158.108286,20.2965806 C158.108286,17.2247628 155.622693,14.7380531 152.552254,14.7380531 C149.481815,14.7380531 146.996222,17.2247628 146.996222,20.2965806 L146.996222,49.2594343 Z M207.966363,6.10770781 L207.966363,49.2594343 C207.966363,52.3312521 205.48077,54.8179618 202.410331,54.8179618 C199.339893,54.8179618 196.854299,52.3312521 196.854299,49.2594343 L196.854299,48.7474647 C194.149389,52.4043907 190.420999,55.1105159 184.64565,55.1105159 C175.507439,55.1105159 166.807863,47.942941 166.807863,34.851146 L166.807863,34.7048689 C166.807863,21.6130739 175.361228,14.445499 184.64565,14.445499 C190.56721,14.445499 194.222495,17.1516243 196.854299,20.2965806 L196.854299,6.10770781 C196.854299,3.03588999 199.339893,0.549180328 202.410331,0.549180328 C205.48077,0.549180328 207.966363,3.03588999 207.966363,6.10770781 Z M187.496772,23.8803681 C182.306268,23.8803681 177.919927,28.1224022 177.919927,34.7048689 L177.919927,34.851146 C177.919927,41.3604742 182.306268,45.6756469 187.496772,45.6756469 C192.687275,45.6756469 197.000511,41.3604742 197.000511,34.851146 L197.000511,34.7048689 C197.000511,28.1955407 192.687275,23.8803681 187.496772,23.8803681 Z M217.031468,48.4549106 L217.031468,48.6011877 C217.031468,52.1118366 219.736379,54.8179618 223.391663,54.8179618 C227.046947,54.8179618 229.751858,52.1118366 229.751858,48.6011877 L229.751858,48.4549106 C229.751858,44.9442617 227.046947,42.2381365 223.391663,42.2381365 C219.736379,42.2381365 217.031468,44.9442617 217.031468,48.4549106 Z M239.328702,49.2594343 C239.328702,52.3312521 241.814296,54.8179618 244.884734,54.8179618 C247.955173,54.8179618 250.440766,52.3312521 250.440766,49.2594343 L250.440766,6.10770781 C250.440766,3.03588999 247.955173,0.549180328 244.884734,0.549180328 C241.814296,0.549180328 239.328702,3.03588999 239.328702,6.10770781 L239.328702,49.2594343 Z M269.00961,66.3007094 C266.524017,66.3007094 264.769481,65.9350168 262.941839,65.2767701 C261.333514,64.6916619 259.432766,63.3751686 259.432766,60.6690434 C259.432766,57.9629182 261.552831,56.1344552 263.819107,56.1344552 C264.696375,56.1344552 265.208115,56.2807322 265.646749,56.4270092 C266.597123,56.7195633 267.181968,56.8658404 267.986131,56.8658404 C269.959984,56.8658404 270.910358,56.5001478 271.933838,54.5254077 L272.299366,53.6477455 L258.921026,22.6370132 C258.628603,21.905628 258.33618,20.8085502 258.33618,20.077165 C258.33618,16.9322087 260.748668,14.7380531 263.819107,14.7380531 C266.597123,14.7380531 268.205448,16.273962 269.155822,18.9069487 L277.636081,41.7261668 L285.823918,18.9800872 C286.701186,16.6396546 288.309511,14.7380531 291.160633,14.7380531 C294.011755,14.7380531 296.424242,16.9322087 296.424242,19.8577495 C296.424242,20.7354117 296.13182,21.9787665 295.912503,22.4907362 L282.24174,55.3299314 C278.951984,63.3020301 275.662228,66.3007094 269.00961,66.3007094 Z M41.1585008,19.9184683 L41.1585008,49.2704741 C41.1585008,52.3422919 38.6729075,54.8290016 35.6024687,54.8290016 C32.5320299,54.8290016 30.0464366,52.3422919 30.0464366,49.2704741 L30.0464366,48.7585045 C27.3415263,52.4154304 23.6131363,55.1215557 17.8377872,55.1215557 C8.69957654,55.1215557 0,47.9539808 0,34.8621858 L0,34.7159087 C0,21.6241137 8.55336516,14.4565388 17.8377872,14.4565388 C23.7593477,14.4565388 27.4146319,17.162664 30.0464366,20.3076204 L30.0464366,19.9184683 C30.0464366,16.8466504 32.5320299,14.3599408 35.6024687,14.3599408 C38.6729075,14.3599408 41.1585008,16.8466504 41.1585008,19.9184683 Z M20.6889089,23.8914078 C15.4984053,23.8914078 11.1120641,28.133442 11.1120641,34.7159087 L11.1120641,34.8621858 C11.1120641,41.371514 15.4984053,45.6866866 20.6889089,45.6866866 C25.8794125,45.6866866 30.192648,41.371514 30.192648,34.8621858 L30.192648,34.7159087 C30.192648,28.2065805 25.8794125,23.8914078 20.6889089,23.8914078 Z" id="Combined-Shape"></path>
            </g>
            <g id="icon" fill-rule="nonzero">
                <path d="M0,73.6952 C0,76.7374 2.4486,79.186 5.4908,79.186 L19.9598,79.186 C22.4084,79.186 24.4118,77.1826 24.4118,74.734 C24.4118,72.2854 22.4084,70.3562 19.9598,70.3562 L10.8332,70.3562 L10.8332,8.8298 L19.9598,8.8298 C22.4084,8.8298 24.4118,6.9006 24.4118,4.452 C24.4118,2.0034 22.4084,0 19.9598,0 L5.4908,0 C2.4486,0 0,2.4486 0,5.4908 L0,73.6952 Z" id="bracket-left" fill="#1789FC"></path>
                <path d="M65,73.6952 C65,76.7374 67.4486,79.186 70.4908,79.186 L84.9598,79.186 C87.4084,79.186 89.4118,77.1826 89.4118,74.734 C89.4118,72.2854 87.4084,70.3562 84.9598,70.3562 L75.8332,70.3562 L75.8332,8.8298 L84.9598,8.8298 C87.4084,8.8298 89.4118,6.9006 89.4118,4.452 C89.4118,2.0034 87.4084,0 84.9598,0 L70.4908,0 C67.4486,0 65,2.4486 65,5.4908 L65,73.6952 Z" id="bracket-right" fill="#1789FC" transform="translate(77.205900, 39.593000) scale(-1, 1) translate(-77.205900, -39.593000) "></path>
                <path d="M28,61.4172 C28,64.5336 30.5228,67.0564 33.6392,67.0564 C36.7556,67.0564 39.2784,64.5336 39.2784,61.4172 L39.2784,54.9618 L43.8046,50.8808 L53.6732,64.4594 C55.0088,66.3144 56.3444,67.0564 58.5704,67.0564 C61.39,67.0564 63.8386,64.9788 63.8386,61.9366 C63.8386,60.6752 63.3934,59.6364 62.4288,58.3008 L51.8182,43.9802 L60.7222,36.3376 C62.2804,34.8536 63.3192,33.3696 63.3192,31.4404 C63.3192,28.8434 61.39,26.3948 58.3478,26.3948 C56.3444,26.3948 55.0088,27.3594 53.3764,28.9176 L39.2784,42.2736 L39.2784,17.6392 C39.2784,14.5228 36.7556,12 33.6392,12 C30.5228,12 28,14.5228 28,17.6392 L28,61.4172 Z" id="k" fill="#302E64"></path>
            </g>
            <path d="M11.176,119.196 C11.704,120.604 12.672,121.44 13.992,121.44 L14.52,121.44 C15.84,121.44 16.852,120.604 17.336,119.196 L24.2,99.088 L31.064,119.196 C31.548,120.604 32.516,121.44 33.836,121.44 L34.364,121.44 C35.684,121.44 36.696,120.56 37.18,119.196 L46.288,93.676 C46.42,93.368 46.552,92.928 46.552,92.576 C46.552,91.124 45.32,89.98 43.868,89.98 C42.548,89.98 41.624,90.816 41.228,91.916 L34.144,113.124 L27.192,92.048 C26.796,90.772 25.828,89.892 24.464,89.892 L24.068,89.892 C22.704,89.892 21.78,90.772 21.34,92.048 L14.388,113.124 L7.304,91.96 C6.952,90.816 5.94,89.98 4.62,89.98 C3.124,89.98 1.848,91.124 1.848,92.62 C1.848,92.972 1.936,93.368 2.068,93.676 L11.176,119.196 Z M54.7541182,107.756 L66.6781182,107.756 C66.3261182,104.324 64.3021182,101.64 60.7821182,101.64 C57.5261182,101.64 55.2381182,104.148 54.7541182,107.756 Z M69.7581182,118.448 C67.6461182,120.34 65.0061182,121.528 61.3981182,121.528 C54.6661182,121.528 49.4741182,116.644 49.4741182,109.472 L49.4741182,109.384 C49.4741182,102.74 54.1821182,97.284 60.8261182,97.284 C68.2181182,97.284 71.8701182,103.356 71.8701182,108.724 C71.8701182,110.22 70.7261182,111.276 69.3621182,111.276 L54.7981182,111.276 C55.3701182,115.06 58.0541182,117.172 61.4861182,117.172 C63.7301182,117.172 65.4901182,116.38 66.9861182,115.148 C67.3821182,114.84 67.7341182,114.664 68.3501182,114.664 C69.5381182,114.664 70.4621182,115.588 70.4621182,116.82 C70.4621182,117.48 70.1541182,118.052 69.7581182,118.448 Z M99.9023545,121.396 C101.310354,121.396 102.410354,121.176 103.554354,120.78 C104.302354,120.472 104.962354,119.68 104.962354,118.712 C104.962354,117.48 103.906354,116.512 102.718354,116.512 C102.542354,116.512 102.014354,116.644 101.398354,116.644 C99.5943545,116.644 98.5383545,115.808 98.5383545,113.74 L98.5383545,102.344 L102.718354,102.344 C103.994354,102.344 105.050354,101.332 105.050354,100.056 C105.050354,98.78 103.994354,97.768 102.718354,97.768 L98.5383545,97.768 L98.5383545,93.808 C98.5383545,92.356 97.3503545,91.168 95.8983545,91.168 C94.4023545,91.168 93.2143545,92.356 93.2143545,93.808 L93.2143545,97.768 L92.3343545,97.768 C91.0583545,97.768 90.0463545,98.78 90.0463545,100.056 C90.0463545,101.332 91.0583545,102.344 92.3343545,102.344 L93.2143545,102.344 L93.2143545,114.576 C93.2143545,119.68 95.9863545,121.396 99.9023545,121.396 Z M133.024,99.9400031 L133.024,118.596004 C133.024,120.092004 131.836,121.236004 130.384,121.236004 C128.888,121.236004 127.7,120.092004 127.7,118.596004 L127.7,117.144004 C125.984,119.564004 123.564,121.500004 119.78,121.500004 C114.324,121.500004 109,117.144004 109,109.444003 L109,109.356003 C109,101.656003 114.236,97.3000031 119.78,97.3000031 C123.608,97.3000031 126.028,99.1920031 127.7,101.392003 L127.7,99.9400031 C127.7,98.4440031 128.888,97.3000031 130.34,97.3000031 C131.836,97.3000031 133.024,98.4440031 133.024,99.9400031 Z M121.056,101.919998 C117.404,101.919998 114.368,104.735998 114.368,109.355998 L114.368,109.443998 C114.368,113.931998 117.448,116.879998 121.056,116.879998 C124.62,116.879998 127.788,113.887998 127.788,109.443998 L127.788,109.355998 C127.788,104.867998 124.62,101.919998 121.056,101.919998 Z M139.614591,118.58 C139.614591,120.076 140.802591,121.22 142.254591,121.22 C143.750591,121.22 144.938591,120.076 144.938591,118.58 L144.938591,114.532 L148.458591,111.188 L155.102591,120.032 C155.762591,120.868 156.378591,121.22 157.434591,121.22 C158.798591,121.22 159.942591,120.252 159.942591,118.8 C159.942591,118.184 159.722591,117.7 159.238591,117.04 L152.198591,107.844 L158.358591,102.168 C159.106591,101.464 159.546591,100.804 159.546591,99.924 C159.546591,98.648 158.622591,97.504 157.214591,97.504 C156.290591,97.504 155.630591,97.944 154.926591,98.648 L144.938591,108.46 L144.938591,91.3 C144.938591,89.848 143.750591,88.66 142.254591,88.66 C140.758591,88.66 139.614591,89.848 139.614591,91.3 L139.614591,118.58 Z M169.772709,107.756 L181.696709,107.756 C181.344709,104.324 179.320709,101.64 175.800709,101.64 C172.544709,101.64 170.256709,104.148 169.772709,107.756 Z M184.776709,118.448 C182.664709,120.34 180.024709,121.528 176.416709,121.528 C169.684709,121.528 164.492709,116.644 164.492709,109.472 L164.492709,109.384 C164.492709,102.74 169.200709,97.284 175.844709,97.284 C183.236709,97.284 186.888709,103.356 186.888709,108.724 C186.888709,110.22 185.744709,111.276 184.380709,111.276 L169.816709,111.276 C170.388709,115.06 173.072709,117.172 176.504709,117.172 C178.748709,117.172 180.508709,116.38 182.004709,115.148 C182.400709,114.84 182.752709,114.664 183.368709,114.664 C184.556709,114.664 185.480709,115.588 185.480709,116.82 C185.480709,117.48 185.172709,118.052 184.776709,118.448 Z M208.132945,125.62 L208.132945,100.188 C208.132945,98.692 209.276945,97.504 210.772945,97.504 C212.268945,97.504 213.456945,98.692 213.456945,100.188 L213.456945,101.64 C215.172945,99.22 217.592945,97.284 221.376945,97.284 C226.832945,97.284 232.156945,101.596 232.156945,109.34 L232.156945,109.428 C232.156945,117.128 226.876945,121.484 221.376945,121.484 C217.504945,121.484 215.084945,119.548 213.456945,117.392 L213.456945,125.62 C213.456945,127.116 212.268945,128.26 210.772945,128.26 C209.320945,128.26 208.132945,127.116 208.132945,125.62 Z M220.100945,116.864 C223.752945,116.864 226.744945,114.004 226.744945,109.428 L226.744945,109.34 C226.744945,104.852 223.708945,101.904 220.100945,101.904 C216.492945,101.904 213.324945,104.896 213.324945,109.34 L213.324945,109.428 C213.324945,113.872 216.492945,116.864 220.100945,116.864 Z M238.863063,91.784 C238.863063,93.368 240.183063,94.424 241.899063,94.424 C243.615063,94.424 244.935063,93.368 244.935063,91.784 L244.935063,91.52 C244.935063,89.936 243.615063,88.924 241.899063,88.924 C240.183063,88.924 238.863063,89.936 238.863063,91.52 L238.863063,91.784 Z M239.259063,118.58 C239.259063,120.076 240.447063,121.22 241.899063,121.22 C243.395063,121.22 244.583063,120.076 244.583063,118.58 L244.583063,100.188 C244.583063,98.692 243.395063,97.504 241.899063,97.504 C240.403063,97.504 239.259063,98.692 239.259063,100.188 L239.259063,118.58 Z M263.565182,121.528 C267.437182,121.528 269.945182,120.208 272.013182,118.228 C272.497182,117.832 272.761182,117.26 272.761182,116.556 C272.761182,115.28 271.749182,114.224 270.473182,114.224 C269.857182,114.224 269.329182,114.532 269.021182,114.796 C267.569182,116.028 265.941182,116.864 263.829182,116.864 C259.737182,116.864 256.877182,113.564 256.877182,109.428 L256.877182,109.34 C256.877182,105.292 259.737182,101.948 263.609182,101.948 C265.721182,101.948 267.217182,102.784 268.581182,103.928 C268.933182,104.192 269.505182,104.456 270.165182,104.456 C271.529182,104.456 272.629182,103.4 272.629182,102.036 C272.629182,101.156 272.145182,100.496 271.793182,100.188 C269.813182,98.472 267.305182,97.284 263.653182,97.284 C256.657182,97.284 251.553182,102.828 251.553182,109.428 L251.553182,109.516 C251.553182,116.116 256.657182,121.528 263.565182,121.528 Z M287.0353,121.396 C288.4433,121.396 289.5433,121.176 290.6873,120.78 C291.4353,120.472 292.0953,119.68 292.0953,118.712 C292.0953,117.48 291.0393,116.512 289.8513,116.512 C289.6753,116.512 289.1473,116.644 288.5313,116.644 C286.7273,116.644 285.6713,115.808 285.6713,113.74 L285.6713,102.344 L289.8513,102.344 C291.1273,102.344 292.1833,101.332 292.1833,100.056 C292.1833,98.78 291.1273,97.768 289.8513,97.768 L285.6713,97.768 L285.6713,93.808 C285.6713,92.356 284.4833,91.168 283.0313,91.168 C281.5353,91.168 280.3473,92.356 280.3473,93.808 L280.3473,97.768 L279.4673,97.768 C278.1913,97.768 277.1793,98.78 277.1793,100.056 C277.1793,101.332 278.1913,102.344 279.4673,102.344 L280.3473,102.344 L280.3473,114.576 C280.3473,119.68 283.1193,121.396 287.0353,121.396 Z M319.261418,100.188 C319.261418,98.692 318.029418,97.504 316.577418,97.504 C315.081418,97.504 313.893418,98.692 313.893418,100.188 L313.893418,110.88 C313.893418,114.488 311.737418,116.6 308.657418,116.6 C305.489418,116.6 303.685418,114.576 303.685418,110.968 L303.685418,100.188 C303.685418,98.692 302.497418,97.504 301.001418,97.504 C299.549418,97.504 298.361418,98.692 298.361418,100.188 L298.361418,112.552 C298.361418,117.964 301.397418,121.484 306.633418,121.484 C310.241418,121.484 312.397418,119.592 313.893418,117.392 L313.893418,118.58 C313.893418,120.076 315.125418,121.22 316.577418,121.22 C318.073418,121.22 319.261418,120.032 319.261418,118.58 L319.261418,100.188 Z M327.199536,118.58 C327.199536,120.076 328.387536,121.22 329.839536,121.22 C331.335536,121.22 332.523536,120.032 332.523536,118.58 L332.523536,111.716 C332.523536,106.216 335.119536,103.312 338.903536,102.652 C340.091536,102.432 341.015536,101.508 341.015536,100.1 C341.015536,98.56 340.047536,97.46 338.375536,97.46 C336.043536,97.46 333.755536,99.66 332.523536,102.564 L332.523536,100.188 C332.523536,98.692 331.335536,97.504 329.839536,97.504 C328.343536,97.504 327.199536,98.692 327.199536,100.188 L327.199536,118.58 Z M349.877654,107.756 L361.801654,107.756 C361.449654,104.324 359.425654,101.64 355.905654,101.64 C352.649654,101.64 350.361654,104.148 349.877654,107.756 Z M364.881654,118.448 C362.769654,120.34 360.129654,121.528 356.521654,121.528 C349.789654,121.528 344.597654,116.644 344.597654,109.472 L344.597654,109.384 C344.597654,102.74 349.305654,97.284 355.949654,97.284 C363.341654,97.284 366.993654,103.356 366.993654,108.724 C366.993654,110.22 365.849654,111.276 364.485654,111.276 L349.921654,111.276 C350.493654,115.06 353.177654,117.172 356.609654,117.172 C358.853654,117.172 360.613654,116.38 362.109654,115.148 C362.505654,114.84 362.857654,114.664 363.473654,114.664 C364.661654,114.664 365.585654,115.588 365.585654,116.82 C365.585654,117.48 365.277654,118.052 364.881654,118.448 Z M381.707772,121.44 C386.547772,121.44 390.331772,119.02 390.331772,114.136 L390.331772,114.048 C390.331772,109.868 386.503772,108.328 383.115772,107.272 C380.387772,106.392 377.879772,105.688 377.879772,103.972 L377.879772,103.884 C377.879772,102.564 379.067772,101.596 381.135772,101.596 C382.763772,101.596 384.699772,102.212 386.591772,103.18 C386.943772,103.356 387.207772,103.444 387.647772,103.444 C388.879772,103.444 389.847772,102.52 389.847772,101.288 C389.847772,100.364 389.319772,99.66 388.571772,99.264 C386.327772,98.076 383.731772,97.372 381.267772,97.372 C376.647772,97.372 372.995772,100.056 372.995772,104.456 L372.995772,104.544 C372.995772,108.988 376.823772,110.396 380.255772,111.364 C382.983772,112.2 385.447772,112.816 385.447772,114.62 L385.447772,114.708 C385.447772,116.248 384.127772,117.216 381.839772,117.216 C379.727772,117.216 377.395772,116.468 375.151772,114.972 C374.843772,114.796 374.447772,114.664 374.007772,114.664 C372.775772,114.664 371.851772,115.632 371.851772,116.82 C371.851772,117.7 372.291772,118.36 372.863772,118.668 C375.547772,120.516 378.759772,121.44 381.707772,121.44 Z" id="tagline" fill="#1789FC"></path>
        </g>
    </g>
</svg>